<svg width="512" height="512" viewBox="0 0 512 512" fill="none" xmlns="http://www.w3.org/2000/svg">
<path d="M336.248 228.557C336.248 257.427 312.847 280.895 283.921 280.895C254.995 280.895 231.594 257.426 231.594 228.557C231.594 199.687 254.995 176.219 283.921 176.219C312.847 176.219 336.248 199.687 336.248 228.557Z" />
<path d="M271.159 120.342C234.102 120.342 204.059 150.392 204.059 187.457V490H105.736V280.959H22V182.926H105.798C108.219 93.6467 181.34 22 271.16 22H369.297V120.344L271.159 120.342Z" />
<path d="M425.634 318.285C412.411 319.335 401.322 324.092 393.067 332.278C384.567 340.708 380.509 350.993 380.509 364.041C380.509 383.56 388.519 397.203 406.395 408.012C410.942 410.74 417.134 413.714 427.838 418.331C442.425 424.593 447.847 427.566 451.31 431.274C455.578 435.857 456.767 443.168 454.074 448.765C453.549 449.849 452.185 451.668 450.961 452.892C446.833 457.055 440.326 459.259 432.246 459.259C418.603 459.259 408.424 453.662 400.238 441.558C399.119 439.949 398.104 438.62 397.964 438.62C397.649 438.62 371.029 453.977 370.469 454.501C370.119 454.816 370.399 455.551 371.764 457.79C382.398 475.7 399.014 486.194 421.472 489.203C427.348 490.007 438.367 489.972 443.999 489.203C458.132 487.209 468.731 482.521 476.951 474.546C485.697 466.115 489.999 455.201 489.999 441.524C489.999 432.778 488.565 425.957 485.312 419.206C483.073 414.588 480.834 411.475 476.986 407.557C469.605 400.071 460.056 394.404 440.991 386.219C426.579 380.027 421.751 377.368 418.568 373.975C415.525 370.722 414.23 366.909 414.51 362.152C414.755 358.374 415.805 355.82 418.113 353.336C421.437 349.733 425.284 348.229 431.231 348.264C437.983 348.264 442.355 350.013 446.798 354.491C448.372 356.03 450.401 358.514 451.345 360.018C452.43 361.732 453.234 362.676 453.514 362.571C454.424 362.187 479.855 345.746 479.855 345.501C479.855 345.361 478.561 343.332 476.986 340.953C473.628 335.916 467.576 329.619 463.414 326.856C455.718 321.749 447.497 319.125 436.653 318.32C431.336 317.901 430.637 317.901 425.634 318.285Z" />
<path d="M316.738 381.845L316.633 443.691L315.863 446.595C314.849 450.408 313.659 452.681 311.56 454.78C308.622 457.719 304.844 458.943 298.548 458.978C289.557 459.013 284.17 455.2 277.909 444.496C276.894 442.817 275.985 441.452 275.88 441.487C275.74 441.557 269.408 445.37 261.817 449.953L248 458.348L249.049 460.447C255.311 472.935 266.155 482.38 279.203 486.718C292.986 491.3 310.686 490.881 323.664 485.668C339.23 479.372 348.36 466.359 350.774 447.014C350.984 445.055 351.124 423.192 351.124 382.055V320.033H333.983H316.878L316.738 381.845Z" />
</svg>
