<svg width="512" height="512" viewBox="0 0 512 512" fill="none" xmlns="http://www.w3.org/2000/svg">
<path d="M336.248 228.557C336.248 257.427 312.847 280.895 283.921 280.895C254.995 280.895 231.594 257.426 231.594 228.557C231.594 199.687 254.995 176.219 283.921 176.219C312.847 176.219 336.248 199.687 336.248 228.557Z" />
<path d="M271.159 120.342C234.102 120.342 204.059 150.392 204.059 187.457V490H105.736V280.959H22V182.926H105.798C108.219 93.6467 181.34 22 271.16 22H369.297V120.344L271.159 120.342Z" />
<path fill-rule="evenodd" clip-rule="evenodd" d="M468.695 363.495C467.314 361.103 465.409 359.015 463.315 357.805L390.584 315.815C386.395 313.395 379.538 313.395 375.348 315.815L302.618 357.805C298.428 360.224 295 366.162 295 371V454.981C295 457.401 295.857 460.095 297.238 462.486L297.24 462.487L297.238 462.488C298.619 464.879 300.524 466.969 302.618 468.178L375.348 510.168C379.538 512.587 386.395 512.587 390.584 510.168L463.315 468.178C465.409 466.968 467.313 464.881 468.693 462.49L468.695 462.491C470.075 460.099 470.933 457.405 470.933 454.986V371.004C470.933 368.585 470.076 365.892 468.695 363.5L468.695 363.5V363.495ZM324.323 412.992C324.323 445.329 350.63 471.636 382.967 471.636C403.834 471.636 423.294 460.407 433.754 442.33L408.374 427.645C403.139 436.694 393.403 442.314 382.967 442.314C366.798 442.314 353.645 429.16 353.645 412.992C353.645 396.824 366.798 383.67 382.967 383.67C393.402 383.67 403.138 389.291 408.372 398.338L433.752 383.652C423.293 365.577 403.833 354.348 382.967 354.348C350.63 354.348 324.323 380.656 324.323 412.992ZM435.096 409.737H441.612V416.253H435.096V422.769H428.58V416.253H422.064V409.737H428.58V403.221H435.096V409.737ZM466.046 409.737H459.529V403.221H453.014V409.737H446.498V416.253H453.014V422.769H459.529V416.253H466.046V409.737Z" />
</svg>
